# xmcd CD database file
#
# Track frame offsets:
#	150
#	12040
#	25653
#	36865
#	53345
#	69590
#	86853
#	102553
#	118753
#	131165
#	148195
#	164505
#	180185
#	196630
#	211890
#	227433
#	244950
#	260363
#	276088
#	290778
#
# Disc length: 4143 seconds
#
# Revision: 0
# Processed by: cddbd v1.5PL3 Copyright (c) Steve Scherf et al.
# Submitted via: CDex 1.51
#
DISCID=1d102d14
DTITLE=avex trax - avex danse vol.1
DYEAR=1994
DGENRE=Dance
TTITLE0=try me/lolita
TTITLE1=dark in the night/maio&co
TTITLE2=hot love&emotion/virginelle
TTITLE3=memories memories/jamie dee
TTITLE4=the key,the secret/urban cookie collrctive
TTITLE5=life so free/the federation
TTITLE6=123456bass(the original)/beat dominator
TTITLE7=oh carol!/general saint featurring don campbell
TTITLE8=ain't no love (ain't no use)/sub sub featuring melanie williams
TTITLE9=i like to move it/reel 2 real featuring the mad stuntman
TTITLE10=move on baby/cappella
TTITLE11=injected with a poison/praga khan&jade 4 u
TTITLE12=no good(stat the dance)/the prodigy
TTITLE13=james broun is dead/l.a.style
TTITLE14=night in emotion/cubic22
TTITLE15=tokyo,go!/john robinson
TTITLE16=can't undo this!!/maximizor
TTITLE17=pumpin'/raveman
TTITLE18=bomb a head!/m.c.A.T
TTITLE19=ez do dance/trf
EXTD=YEAR: 1994
EXTT0=
EXTT1=
EXTT2=
EXTT3=
EXTT4=
EXTT5=
EXTT6=
EXTT7=
EXTT8=
EXTT9=
EXTT10=
EXTT11=
EXTT12=
EXTT13=
EXTT14=
EXTT15=
EXTT16=
EXTT17=
EXTT18=
EXTT19=
PLAYORDER=
